# xmcd CD database file
#
# Track frame offsets:
#	150
#	15211
#	29264
#	43725
#	58607
#	77513
#	92197
#	105676
#	120960
#
# Disc length: 1888 seconds
#
# Revision: 0
# Processed by: cddbd v1.5.2PL0 Copyright (c) Steve Scherf et al.
# Submitted via: CDex 1.70beta2
#
DISCID=5f075e09
DTITLE=Lionel Hampton - Flying Home CD9
DYEAR=2008
DGENRE=Jazz
TTITLE0=1 Adam Blew His Hat  (Hampton/Dardanelle/Scott)
TTITLE1=2 Doublin’ With Dublin (Hampton)
TTITLE2=3 Hamp’s Boogie Woogie (Hampton/Buckner)
TTITLE3=4 Hey! Ba-Ba-Re-Bop (L. Hampton/C. Hammer)
TTITLE4=5 Ain’t Misbehavin’(Razaf/Waller/Brooks)
TTITLE5=6 Hamp’s Boogie Woogie No. 1(L. Hampton/M. Buckner)
TTITLE6=7 Hamp’s Boogie Woogie No. 2(Hampton/Hammer)
TTITLE7=8 One Sweet Letter From You (Clare/Brown/Warren)
TTITLE8=9 Sleepy Time Down South  (Rene/Rene/Muse)
EXTD=YEAR: 2008
EXTT0=
EXTT1=
EXTT2=
EXTT3=
EXTT4=
EXTT5=
EXTT6=
EXTT7=
EXTT8=
PLAYORDER=
